.sfdir
StartChar: numbersign
Encoding: 35 35 31
Width: 550
LayerCount: 2
Fore
SplineSet
147 703 m 5,0,-1
 247 703 l 5,1,-1
 231 566 l 5,2,-1
 353 566 l 5,3,-1
 369 703 l 5,4,-1
 468 703 l 5,5,-1
 452 566 l 5,6,-1
 522 566 l 5,7,-1
 522 479 l 5,8,-1
 444 479 l 5,9,-1
 430 347 l 5,10,-1
 499 347 l 5,11,-1
 499 257 l 5,12,-1
 422 257 l 5,13,-1
 403 96 l 5,14,-1
 304 96 l 5,15,-1
 323 257 l 5,16,-1
 201 257 l 5,17,-1
 182 96 l 5,18,-1
 82 96 l 5,19,-1
 101 257 l 5,20,-1
 27 257 l 5,21,-1
 27 347 l 5,22,-1
 109 347 l 5,23,-1
 123 479 l 5,24,-1
 50 479 l 5,25,-1
 50 566 l 5,26,-1
 131 566 l 5,27,-1
 147 703 l 5,0,-1
345 479 m 5,28,-1
 223 479 l 5,29,-1
 209 347 l 5,30,-1
 331 347 l 5,31,-1
 345 479 l 5,28,-1
EndSplineSet
EndChar
StartChar: hyphen
Encoding: 45 45 4
Width: 550
GlyphClass: 2
Flags: W
LayerCount: 2
Fore
SplineSet
470 300 m 5,0,-1
 80 300 l 5,1,-1
 80 413 l 1,2,-1
 470 413 l 1,3,-1
 470 300 l 5,0,-1
EndSplineSet
Validated: 1
EndChar
StartChar: A
Encoding: 65 65 5
Width: 550
GlyphClass: 2
Flags: W
LayerCount: 2
Fore
SplineSet
418 0 m 1,0,-1
 376 150 l 1,1,-1
 172 150 l 1,2,-1
 130 0 l 1,3,-1
 4 0 l 1,4,-1
 211 696 l 1,5,-1
 339 696 l 1,6,-1
 544 0 l 1,7,-1
 418 0 l 1,0,-1
276 531 m 1,8,-1
 272 531 l 1,9,10
 256 463 256 463 238 395 c 0,11,12
 202 263 202 263 199 251 c 1,13,-1
 349 251 l 1,14,15
 345 267 345 267 334 306 c 128,-1,16
 323 345 323 345 315 375 c 0,17,18
 285 490 285 490 276 531 c 1,8,-1
EndSplineSet
Validated: 1
EndChar
StartChar: B
Encoding: 66 66 6
Width: 550
GlyphClass: 2
Flags: W
LayerCount: 2
Fore
SplineSet
526 205 m 0,0,1
 526 115 526 115 467.5 57.5 c 128,-1,2
 409 0 409 0 322 0 c 2,3,-1
 42 0 l 1,4,-1
 42 696 l 1,5,-1
 293 696 l 2,6,7
 398 696 398 696 454.5 646.5 c 128,-1,8
 511 597 511 597 511 512 c 0,9,10
 511 470 511 470 487.5 429.5 c 128,-1,11
 464 389 464 389 416 369 c 1,12,-1
 416 365 l 1,13,14
 467 350 467 350 496.5 303 c 128,-1,15
 526 256 526 256 526 205 c 0,0,1
385 503 m 0,16,17
 385 541 385 541 358 564.5 c 128,-1,18
 331 588 331 588 282 588 c 2,19,-1
 163 588 l 1,20,-1
 163 413 l 1,21,-1
 282 413 l 2,22,23
 332 413 332 413 358.5 438.5 c 128,-1,24
 385 464 385 464 385 503 c 0,16,17
403 212 m 128,-1,26
 403 254 403 254 375 282.5 c 128,-1,27
 347 311 347 311 293 311 c 2,28,-1
 163 311 l 1,29,-1
 163 109 l 1,30,-1
 293 109 l 2,31,32
 346 109 346 109 374.5 139.5 c 128,-1,25
 403 170 403 170 403 212 c 128,-1,26
EndSplineSet
Validated: 1
EndChar
StartChar: C
Encoding: 67 67 7
Width: 550
GlyphClass: 2
Flags: W
LayerCount: 2
Fore
SplineSet
420 203 m 1,0,-1
 533 156 l 1,1,2
 506 79 506 79 444.5 36.5 c 128,-1,3
 383 -6 383 -6 293 -6 c 0,4,5
 164 -6 164 -6 102 66.5 c 128,-1,6
 40 139 40 139 40 259 c 2,7,-1
 40 437 l 2,8,9
 40 551 40 551 102 626 c 128,-1,10
 164 701 164 701 289 701 c 0,11,12
 376 701 376 701 436 657.5 c 128,-1,13
 496 614 496 614 523 539 c 1,14,-1
 412 494 l 1,15,16
 383 587 383 587 291 587 c 0,17,18
 227 587 227 587 194 544.5 c 128,-1,19
 161 502 161 502 161 442 c 2,20,-1
 161 257 l 2,21,22
 161 195 161 195 194.5 151.5 c 128,-1,23
 228 108 228 108 293 108 c 0,24,25
 341 108 341 108 373.5 134 c 128,-1,26
 406 160 406 160 420 203 c 1,0,-1
EndSplineSet
Validated: 1
EndChar
StartChar: D
Encoding: 68 68 8
Width: 550
GlyphClass: 2
Flags: W
LayerCount: 2
Fore
SplineSet
34 696 m 1,0,-1
 265 696 l 2,1,2
 440 696 440 696 502 567 c 0,3,4
 529 512 529 512 529 360 c 0,5,6
 529 197 529 197 504 138 c 0,7,8
 444 0 444 0 248 0 c 2,9,-1
 34 0 l 1,10,-1
 34 696 l 1,0,-1
408 283 m 2,11,-1
 408 413 l 2,12,13
 408 504 408 504 368.5 545 c 128,-1,14
 329 586 329 586 250 586 c 2,15,-1
 155 586 l 1,16,-1
 155 109 l 1,17,-1
 252 109 l 2,18,19
 336 109 336 109 372 154 c 128,-1,20
 408 199 408 199 408 283 c 2,11,-1
EndSplineSet
Validated: 1
EndChar
StartChar: E
Encoding: 69 69 9
Width: 550
GlyphClass: 2
Flags: W
LayerCount: 2
Fore
SplineSet
518 0 m 1,0,-1
 59 0 l 1,1,-1
 59 696 l 1,2,-1
 498 696 l 1,3,-1
 498 586 l 1,4,-1
 180 586 l 1,5,-1
 180 414 l 1,6,-1
 462 414 l 1,7,-1
 462 309 l 1,8,-1
 180 309 l 1,9,-1
 180 109 l 1,10,-1
 518 109 l 1,11,-1
 518 0 l 1,0,-1
EndSplineSet
Validated: 1
EndChar
StartChar: F
Encoding: 70 70 10
Width: 550
GlyphClass: 2
Flags: W
LayerCount: 2
Fore
SplineSet
513 586 m 1,0,-1
 188 586 l 1,1,-1
 188 398 l 1,2,-1
 465 398 l 1,3,-1
 465 293 l 1,4,-1
 188 293 l 1,5,-1
 188 0 l 1,6,-1
 67 0 l 1,7,-1
 67 696 l 1,8,-1
 513 696 l 1,9,-1
 513 586 l 1,0,-1
EndSplineSet
Validated: 1
EndChar
StartChar: G
Encoding: 71 71 11
Width: 550
GlyphClass: 2
Flags: W
LayerCount: 2
Fore
SplineSet
274 701 m 0,0,1
 363 701 363 701 424.5 657.5 c 128,-1,2
 486 614 486 614 514 540 c 1,3,-1
 402 494 l 1,4,5
 389 535 389 535 354 561 c 128,-1,6
 319 587 319 587 274 587 c 0,7,8
 206 587 206 587 175.5 545.5 c 128,-1,9
 145 504 145 504 145 442 c 2,10,-1
 145 254 l 2,11,12
 145 190 145 190 176.5 148 c 128,-1,13
 208 106 208 106 275 106 c 0,14,15
 337 106 337 106 372 144.5 c 128,-1,16
 407 183 407 183 407 247 c 2,17,-1
 407 276 l 1,18,-1
 285 276 l 1,19,-1
 285 380 l 1,20,-1
 527 380 l 1,21,-1
 527 248 l 2,22,23
 527 134 527 134 458.5 63.5 c 128,-1,24
 390 -7 390 -7 274 -7 c 0,25,26
 149 -7 149 -7 86.5 65.5 c 128,-1,27
 24 138 24 138 24 254 c 2,28,-1
 24 442 l 2,29,30
 24 552 24 552 87.5 626.5 c 128,-1,31
 151 701 151 701 274 701 c 0,0,1
EndSplineSet
Validated: 1
EndChar
StartChar: H
Encoding: 72 72 12
Width: 550
GlyphClass: 2
Flags: W
LayerCount: 2
Fore
SplineSet
521 0 m 1,0,-1
 401 0 l 1,1,-1
 401 308 l 1,2,-1
 150 308 l 1,3,-1
 150 0 l 1,4,-1
 29 0 l 1,5,-1
 29 696 l 1,6,-1
 150 696 l 1,7,-1
 150 413 l 1,8,-1
 401 413 l 1,9,-1
 401 696 l 1,10,-1
 521 696 l 1,11,-1
 521 0 l 1,0,-1
EndSplineSet
Validated: 1
EndChar
StartChar: I
Encoding: 73 73 13
Width: 550
GlyphClass: 2
Flags: W
LayerCount: 2
Fore
SplineSet
92 587 m 1,0,-1
 92 696 l 1,1,-1
 464 696 l 1,2,-1
 464 587 l 1,3,-1
 334 587 l 1,4,-1
 334 109 l 1,5,-1
 464 109 l 1,6,-1
 464 0 l 1,7,-1
 92 0 l 1,8,-1
 92 109 l 1,9,-1
 213 109 l 1,10,-1
 213 587 l 1,11,-1
 92 587 l 1,0,-1
EndSplineSet
Validated: 1
EndChar
StartChar: J
Encoding: 74 74 14
Width: 550
GlyphClass: 2
Flags: W
LayerCount: 2
Fore
SplineSet
455 695 m 1,0,-1
 455 223 l 2,1,2
 455 102 455 102 393.5 48.5 c 128,-1,3
 332 -5 332 -5 232 -5 c 0,4,5
 104 -5 104 -5 40 77 c 1,6,-1
 118 161 l 1,7,8
 141 137 141 137 171.5 121.5 c 128,-1,9
 202 106 202 106 226 106 c 0,10,11
 267 106 267 106 301 132.5 c 128,-1,12
 335 159 335 159 335 227 c 2,13,-1
 335 587 l 1,14,-1
 92 587 l 1,15,-1
 92 695 l 1,16,-1
 455 695 l 1,0,-1
EndSplineSet
Validated: 1
EndChar
StartChar: K
Encoding: 75 75 15
Width: 550
GlyphClass: 2
Flags: W
LayerCount: 2
Fore
SplineSet
522 696 m 1,0,-1
 316 423 l 1,1,-1
 548 0 l 1,2,-1
 407 0 l 1,3,-1
 237 318 l 1,4,-1
 153 208 l 1,5,-1
 153 0 l 1,6,-1
 32 0 l 1,7,-1
 32 696 l 1,8,-1
 154 696 l 1,9,-1
 154 394 l 1,10,-1
 156 394 l 1,11,-1
 384 696 l 1,12,-1
 522 696 l 1,0,-1
EndSplineSet
Validated: 1
EndChar
StartChar: L
Encoding: 76 76 16
Width: 550
GlyphClass: 2
Flags: W
LayerCount: 2
Fore
SplineSet
530 0 m 1,0,-1
 89 0 l 1,1,-1
 89 696 l 1,2,-1
 210 696 l 1,3,-1
 210 109 l 1,4,-1
 530 109 l 1,5,-1
 530 0 l 1,0,-1
EndSplineSet
Validated: 1
EndChar
StartChar: M
Encoding: 77 77 17
Width: 550
GlyphClass: 2
Flags: W
LayerCount: 2
Fore
SplineSet
516 0 m 1,0,-1
 397 0 l 1,1,-1
 397 434 l 1,2,-1
 394 434 l 1,3,-1
 321 231 l 1,4,-1
 231 231 l 1,5,-1
 158 435 l 1,6,-1
 155 432 l 1,7,-1
 155 0 l 1,8,-1
 36 0 l 1,9,-1
 36 696 l 1,10,-1
 160 696 l 1,11,-1
 275 383 l 1,12,-1
 278 383 l 1,13,-1
 390 696 l 1,14,-1
 516 696 l 1,15,-1
 516 0 l 1,0,-1
EndSplineSet
Validated: 1
EndChar
StartChar: N
Encoding: 78 78 18
Width: 550
GlyphClass: 2
Flags: W
LayerCount: 2
Fore
SplineSet
502 0 m 1,0,-1
 384 0 l 1,1,-1
 173 437 l 1,2,-1
 170 436 l 1,3,-1
 170 0 l 1,4,-1
 49 0 l 1,5,-1
 49 696 l 1,6,-1
 168 696 l 1,7,-1
 379 261 l 1,8,-1
 382 262 l 1,9,-1
 382 696 l 1,10,-1
 502 696 l 1,11,-1
 502 0 l 1,0,-1
EndSplineSet
Validated: 1
EndChar
StartChar: O
Encoding: 79 79 19
Width: 550
GlyphClass: 2
Flags: W
LayerCount: 2
Fore
SplineSet
273 701 m 0,0,1
 393 701 393 701 457.5 629.5 c 128,-1,2
 522 558 522 558 522 442 c 2,3,-1
 522 247 l 2,4,5
 522 132 522 132 457 63 c 128,-1,6
 392 -6 392 -6 273 -6 c 0,7,8
 147 -6 147 -6 87 64.5 c 128,-1,9
 27 135 27 135 27 247 c 2,10,-1
 27 442 l 2,11,12
 27 556 27 556 87.5 628.5 c 128,-1,13
 148 701 148 701 273 701 c 0,0,1
273 588 m 0,14,15
 207 588 207 588 177.5 545.5 c 128,-1,16
 148 503 148 503 148 440 c 2,17,-1
 148 256 l 2,18,19
 148 191 148 191 177 148.5 c 128,-1,20
 206 106 206 106 273 106 c 0,21,22
 338 106 338 106 369 147.5 c 128,-1,23
 400 189 400 189 400 256 c 2,24,-1
 400 440 l 2,25,26
 400 504 400 504 368 546 c 128,-1,27
 336 588 336 588 273 588 c 0,14,15
EndSplineSet
Validated: 1
EndChar
StartChar: P
Encoding: 80 80 20
Width: 550
GlyphClass: 2
Flags: W
LayerCount: 2
Fore
SplineSet
532 478 m 0,0,1
 532 390 532 390 471 328.5 c 128,-1,2
 410 267 410 267 302 267 c 2,3,-1
 176 267 l 1,4,-1
 176 0 l 1,5,-1
 55 0 l 1,6,-1
 55 696 l 1,7,-1
 295 696 l 2,8,9
 403 696 403 696 467.5 639.5 c 128,-1,10
 532 583 532 583 532 478 c 0,0,1
408 481 m 0,11,12
 408 533 408 533 378 559.5 c 128,-1,13
 348 586 348 586 294 586 c 2,14,-1
 176 586 l 1,15,-1
 176 376 l 1,16,-1
 298 376 l 2,17,18
 351 376 351 376 379.5 406 c 128,-1,19
 408 436 408 436 408 481 c 0,11,12
EndSplineSet
Validated: 1
EndChar
StartChar: Q
Encoding: 81 81 21
Width: 550
GlyphClass: 2
Flags: W
LayerCount: 2
Fore
SplineSet
273 701 m 0,0,1
 392 701 392 701 457 626.5 c 128,-1,2
 522 552 522 552 522 432 c 2,3,-1
 522 254 l 2,4,5
 522 137 522 137 460 67 c 1,6,-1
 509 8 l 1,7,-1
 434 -53 l 1,8,-1
 379 13 l 1,9,10
 331 -6 331 -6 273 -6 c 0,11,12
 146 -6 146 -6 86.5 66 c 128,-1,13
 27 138 27 138 27 254 c 2,14,-1
 27 432 l 2,15,16
 27 549 27 549 88 625 c 128,-1,17
 149 701 149 701 273 701 c 0,0,1
273 588 m 0,18,19
 148 588 148 588 148 425 c 2,20,-1
 148 271 l 2,21,22
 148 107 148 107 274 107 c 0,23,24
 288 107 288 107 301 110 c 1,25,-1
 251 173 l 1,26,-1
 324 236 l 1,27,-1
 379 167 l 1,28,29
 400 208 400 208 400 271 c 2,30,-1
 400 440 l 2,31,32
 400 504 400 504 368 546 c 128,-1,33
 336 588 336 588 273 588 c 0,18,19
EndSplineSet
Validated: 1
EndChar
StartChar: R
Encoding: 82 82 22
Width: 550
GlyphClass: 2
Flags: W
LayerCount: 2
Fore
SplineSet
529 0 m 1,0,-1
 394 0 l 1,1,-1
 270 280 l 1,2,-1
 170 280 l 1,3,-1
 170 0 l 1,4,-1
 49 0 l 1,5,-1
 49 696 l 1,6,-1
 318 696 l 2,7,8
 410 696 410 696 468 639.5 c 128,-1,9
 526 583 526 583 526 491 c 0,10,11
 526 424 526 424 489 372 c 128,-1,12
 452 320 452 320 387 298 c 1,13,-1
 529 0 l 1,0,-1
402 491 m 0,14,15
 402 538 402 538 372.5 563.5 c 128,-1,16
 343 589 343 589 295 589 c 2,17,-1
 170 589 l 1,18,-1
 170 387 l 1,19,-1
 292 387 l 2,20,21
 344 387 344 387 373 414.5 c 128,-1,22
 402 442 402 442 402 491 c 0,14,15
EndSplineSet
Validated: 1
EndChar
StartChar: S
Encoding: 83 83 23
Width: 550
GlyphClass: 2
Flags: W
LayerCount: 2
Fore
SplineSet
526 206 m 0,0,1
 526 107 526 107 455 51.5 c 128,-1,2
 384 -4 384 -4 276 -4 c 0,3,4
 116 -4 116 -4 14 91 c 1,5,6
 26 106 26 106 47.5 137 c 128,-1,7
 69 168 69 168 81 183 c 1,8,9
 162 105 162 105 278 105 c 0,10,11
 333 105 333 105 369 129 c 128,-1,12
 405 153 405 153 405 202 c 0,13,14
 405 224 405 224 396 241.5 c 128,-1,15
 387 259 387 259 376 269 c 128,-1,16
 365 279 365 279 341 288.5 c 128,-1,17
 317 298 317 298 301.5 302 c 128,-1,18
 286 306 286 306 255 313 c 0,19,20
 227 319 227 319 212.5 323 c 128,-1,21
 198 327 198 327 172.5 335.5 c 128,-1,22
 147 344 147 344 133 352 c 128,-1,23
 119 360 119 360 100.5 375 c 128,-1,24
 82 390 82 390 73 407 c 128,-1,25
 64 424 64 424 57 449.5 c 128,-1,26
 50 475 50 475 50 505 c 0,27,28
 50 600 50 600 116.5 651.5 c 128,-1,29
 183 703 183 703 275 703 c 0,30,31
 414 703 414 703 498 637 c 1,32,-1
 444 541 l 1,33,34
 370 592 370 592 284 592 c 0,35,36
 227 592 227 592 197.5 570.5 c 128,-1,37
 168 549 168 549 168 513 c 0,38,39
 168 471 168 471 201 449 c 128,-1,40
 234 427 234 427 323 408 c 0,41,42
 365 399 365 399 396 387 c 128,-1,43
 427 375 427 375 459 353 c 128,-1,44
 491 331 491 331 508.5 294 c 128,-1,45
 526 257 526 257 526 206 c 0,0,1
EndSplineSet
Validated: 1
EndChar
StartChar: T
Encoding: 84 84 24
Width: 550
GlyphClass: 2
Flags: W
LayerCount: 2
Fore
SplineSet
520 588 m 1,0,-1
 336 588 l 1,1,-1
 336 0 l 1,2,-1
 215 0 l 1,3,-1
 215 588 l 1,4,-1
 31 588 l 1,5,-1
 31 696 l 1,6,-1
 520 696 l 1,7,-1
 520 588 l 1,0,-1
EndSplineSet
Validated: 1
EndChar
StartChar: U
Encoding: 85 85 25
Width: 550
GlyphClass: 2
Flags: W
LayerCount: 2
Fore
SplineSet
396 696 m 1,0,-1
 517 696 l 1,1,-1
 517 245 l 2,2,3
 517 131 517 131 454.5 63 c 128,-1,4
 392 -5 392 -5 275 -5 c 0,5,6
 153 -5 153 -5 93 64 c 128,-1,7
 33 133 33 133 33 249 c 2,8,-1
 33 696 l 1,9,-1
 153 696 l 1,10,-1
 153 300 l 2,11,12
 153 257 153 257 157.5 226.5 c 128,-1,13
 162 196 162 196 174 167 c 128,-1,14
 186 138 186 138 211.5 123 c 128,-1,15
 237 108 237 108 275 108 c 128,-1,16
 313 108 313 108 337.5 122.5 c 128,-1,17
 362 137 362 137 374.5 165 c 128,-1,18
 387 193 387 193 391.5 224.5 c 128,-1,19
 396 256 396 256 396 301 c 2,20,-1
 396 696 l 1,0,-1
EndSplineSet
Validated: 1
EndChar
StartChar: V
Encoding: 86 86 26
Width: 550
GlyphClass: 2
Flags: W
LayerCount: 2
Fore
SplineSet
275 172 m 1,0,-1
 280 172 l 1,1,-1
 416 696 l 1,2,-1
 540 696 l 1,3,-1
 338 0 l 1,4,-1
 212 0 l 1,5,-1
 9 696 l 1,6,-1
 134 696 l 1,7,-1
 275 172 l 1,0,-1
EndSplineSet
Validated: 1
EndChar
StartChar: W
Encoding: 87 87 27
Width: 550
GlyphClass: 2
Flags: W
LayerCount: 2
Fore
SplineSet
276 297 m 1,0,-1
 272 297 l 1,1,-1
 201 0 l 1,2,-1
 79 0 l 1,3,-1
 10 695 l 1,4,-1
 125 695 l 1,5,-1
 166 235 l 1,6,-1
 169 235 l 1,7,-1
 229 488 l 1,8,-1
 320 488 l 1,9,-1
 379 238 l 1,10,-1
 383 238 l 1,11,-1
 427 695 l 1,12,-1
 540 695 l 1,13,-1
 466 0 l 1,14,-1
 351 0 l 1,15,-1
 276 297 l 1,0,-1
EndSplineSet
Validated: 1
EndChar
StartChar: X
Encoding: 88 88 28
Width: 550
GlyphClass: 2
Flags: W
LayerCount: 2
Fore
SplineSet
538 0 m 1,0,-1
 406 0 l 1,1,-1
 274 243 l 1,2,-1
 143 0 l 1,3,-1
 11 0 l 1,4,-1
 211 360 l 1,5,-1
 26 696 l 1,6,-1
 157 696 l 1,7,-1
 274 475 l 1,8,-1
 392 696 l 1,9,-1
 522 696 l 1,10,-1
 338 360 l 1,11,-1
 538 0 l 1,0,-1
EndSplineSet
Validated: 1
EndChar
StartChar: Y
Encoding: 89 89 29
Width: 550
GlyphClass: 2
Flags: W
LayerCount: 2
Fore
SplineSet
533 696 m 1,0,-1
 332 280 l 1,1,-1
 332 0 l 1,2,-1
 217 0 l 1,3,-1
 217 280 l 1,4,-1
 16 696 l 1,5,-1
 141 696 l 1,6,-1
 274 407 l 1,7,-1
 278 409 l 1,8,-1
 409 696 l 1,9,-1
 533 696 l 1,0,-1
EndSplineSet
Validated: 1
EndChar
StartChar: Z
Encoding: 90 90 30
Width: 550
GlyphClass: 2
Flags: W
LayerCount: 2
Fore
SplineSet
503 0 m 1,0,-1
 46 0 l 1,1,-1
 46 104 l 1,2,-1
 354 589 l 1,3,-1
 62 589 l 1,4,-1
 62 696 l 1,5,-1
 498 696 l 1,6,-1
 498 597 l 1,7,-1
 189 111 l 1,8,-1
 503 111 l 1,9,-1
 503 0 l 1,0,-1
EndSplineSet
Validated: 1
EndChar
